<?xml version="1.0" encoding="utf-8"?>
<!-- Generator: Adobe Illustrator 23.0.3, SVG Export Plug-In . SVG Version: 6.00 Build 0)  -->
<svg version="1.1" id="Layer_1" xmlns="http://www.w3.org/2000/svg" xmlns:xlink="http://www.w3.org/1999/xlink" x="0px" y="0px"
	 viewBox="0 0 512 512" style="enable-background:new 0 0 512 512;" xml:space="preserve">
<style type="text/css">
	.st0{fill:#607D8B;}
	.st1{fill:#FAFAFA;}
</style>
<path class="st0" d="M453.3,0H58.7C26.3,0,0,26.3,0,58.7v394.7C0,485.7,26.3,512,58.7,512h394.7c32.4,0,58.7-26.3,58.7-58.7V58.7
	C512,26.3,485.7,0,453.3,0z"/>
<g>
	<path class="st1" d="M234.7,410.7c0,20.6-16.7,37.3-37.3,37.3h-96C80.7,448,64,431.3,64,410.7V272c0-20.6,16.7-37.3,37.3-37.3h96
		c20.6,0,37.3,16.7,37.3,37.3V410.7z"/>
	<path class="st1" d="M234.7,154.7c0,20.6-16.7,37.3-37.3,37.3h-96C80.7,192,64,175.3,64,154.7v-53.3C64,80.7,80.7,64,101.3,64h96
		c20.6,0,37.3,16.7,37.3,37.3V154.7z"/>
	<path class="st1" d="M448,410.7c0,20.6-16.7,37.3-37.3,37.3h-96c-20.6,0-37.3-16.7-37.3-37.3v-53.3c0-20.6,16.7-37.3,37.3-37.3h96
		c20.6,0,37.3,16.7,37.3,37.3V410.7z"/>
	<path class="st1" d="M448,240c0,20.6-16.7,37.3-37.3,37.3h-96c-20.6,0-37.3-16.7-37.3-37.3V101.3c0-20.6,16.7-37.3,37.3-37.3h96
		c20.6,0,37.3,16.7,37.3,37.3V240z"/>
</g>
</svg>
